<svg width="192" height="192" viewBox="0 0 192 192" fill="none" xmlns="http://www.w3.org/2000/svg">
  <!-- Background -->
  <rect width="192" height="192" rx="24" fill="#0047AB"/>
  
  <!-- Main Icon -->
  <g transform="translate(32, 32)">
    <!-- Package Box -->
    <rect x="20" y="40" width="88" height="60" rx="8" fill="#FFFFFF" stroke="#FF6B00" stroke-width="3"/>
    
    <!-- Package Lines -->
    <line x1="20" y1="70" x2="108" y2="70" stroke="#FF6B00" stroke-width="2"/>
    <line x1="64" y1="40" x2="64" y2="100" stroke="#FF6B00" stroke-width="2"/>
    
    <!-- Airplane -->
    <g transform="translate(40, 15)">
      <path d="M24 8L32 16L24 24L16 20L8 24L0 16L8 8L16 12L24 8Z" fill="#00A86B"/>
      <circle cx="16" cy="16" r="3" fill="#FFFFFF"/>
    </g>
    
    <!-- Speed Lines -->
    <g opacity="0.6">
      <line x1="10" y1="25" x2="20" y2="25" stroke="#FFFFFF" stroke-width="2" stroke-linecap="round"/>
      <line x1="10" y1="30" x2="25" y2="30" stroke="#FFFFFF" stroke-width="2" stroke-linecap="round"/>
      <line x1="10" y1="35" x2="15" y2="35" stroke="#FFFFFF" stroke-width="2" stroke-linecap="round"/>
    </g>
    
    <!-- Location Pin -->
    <g transform="translate(85, 105)">
      <path d="M12 2C8.13 2 5 5.13 5 9C5 14.25 12 22 12 22S19 14.25 19 9C19 5.13 15.87 2 12 2ZM12 11.5C10.62 11.5 9.5 10.38 9.5 9S10.62 6.5 12 6.5S14.5 7.62 14.5 9S13.38 11.5 12 11.5Z" fill="#FF6B00"/>
    </g>
  </g>
  
  <!-- Company Text -->
  <text x="96" y="165" text-anchor="middle" fill="#FFFFFF" font-family="Arial, sans-serif" font-size="14" font-weight="bold">SMARTCORE</text>
  <text x="96" y="180" text-anchor="middle" fill="#FF6B00" font-family="Arial, sans-serif" font-size="12" font-weight="bold">EXPRESS</text>
</svg>