<svg width="121" height="121" viewBox="0 0 121 121" fill="none" xmlns="http://www.w3.org/2000/svg">
  <!-- Background Circle -->
  <circle cx="60.5" cy="60.5" r="60.5" fill="#0047AB"/>
  
  <!-- Main Container -->
  <g transform="translate(20, 20)">
    <!-- Package Box -->
    <rect x="15" y="30" width="50" height="35" rx="4" fill="#FFFFFF" stroke="#FF6B00" stroke-width="2"/>
    
    <!-- Package Cross Lines -->
    <line x1="15" y1="47.5" x2="65" y2="47.5" stroke="#FF6B00" stroke-width="1.5"/>
    <line x1="40" y1="30" x2="40" y2="65" stroke="#FF6B00" stroke-width="1.5"/>
    
    <!-- Airplane/Delivery Icon -->
    <g transform="translate(25, 10)">
      <path d="M15 5L20 10L15 15L10 12.5L5 15L0 10L5 5L10 7.5L15 5Z" fill="#00A86B"/>
      <circle cx="10" cy="10" r="2" fill="#FFFFFF"/>
    </g>
    
    <!-- Speed Lines -->
    <g opacity="0.7">
      <line x1="5" y1="15" x2="12" y2="15" stroke="#FFFFFF" stroke-width="1.5" stroke-linecap="round"/>
      <line x1="5" y1="18" x2="15" y2="18" stroke="#FFFFFF" stroke-width="1.5" stroke-linecap="round"/>
      <line x1="5" y1="21" x2="10" y2="21" stroke="#FFFFFF" stroke-width="1.5" stroke-linecap="round"/>
    </g>
    
    <!-- Location Pin -->
    <g transform="translate(55, 70)">
      <path d="M8 1C5.24 1 3 3.24 3 6C3 9.5 8 15 8 15S13 9.5 13 6C13 3.24 10.76 1 8 1ZM8 7.5C7.17 7.5 6.5 6.83 6.5 6S7.17 4.5 8 4.5S9.5 5.17 9.5 6S8.83 7.5 8 7.5Z" fill="#FF6B00"/>
    </g>
    
    <!-- Tracking Dots -->
    <g transform="translate(70, 35)" opacity="0.8">
      <circle cx="0" cy="0" r="1.5" fill="#00A86B"/>
      <circle cx="5" cy="5" r="1.5" fill="#00A86B"/>
      <circle cx="10" cy="10" r="1.5" fill="#00A86B"/>
      <line x1="0" y1="0" x2="5" y2="5" stroke="#00A86B" stroke-width="1" stroke-dasharray="2,2"/>
      <line x1="5" y1="5" x2="10" y2="10" stroke="#00A86B" stroke-width="1" stroke-dasharray="2,2"/>
    </g>
  </g>
  
  <!-- Company Text -->
  <text x="60.5" y="95" text-anchor="middle" fill="#FFFFFF" font-family="Arial, sans-serif" font-size="8" font-weight="bold">SMARTCORE</text>
  <text x="60.5" y="105" text-anchor="middle" fill="#FF6B00" font-family="Arial, sans-serif" font-size="6" font-weight="bold">EXPRESS</text>
</svg>